<svg viewBox="0 0 215 56" class="r-1pi2tsx r-1mdbw0j r-gy4na3 r-9aemit r-wk8lta"><path fill-rule="evenodd" clip-rule="evenodd" d="M41.1001 50.9681C41.1001 47.7749 43.0379 45.9482 45.7428 45.9482C48.447 45.9482 50.3842 47.7749 50.3842 50.9681C50.3842 54.1733 48.447 56 45.7428 56C43.0379 56 41.1001 54.1733 41.1001 50.9681ZM43.4146 50.9807C43.4146 52.8778 44.3064 53.9094 45.7428 53.9094C47.1779 53.9094 48.0703 52.8778 48.0703 50.9807C48.0703 49.0716 47.1779 48.0394 45.7428 48.0394C44.3064 48.0394 43.4146 49.0716 43.4146 50.9807ZM71.5026 48.7929C71.5026 49.2944 72.0327 49.4764 73.5794 50.0048C75.7118 50.7301 76.4228 51.4136 76.4228 52.989C76.4228 54.7602 74.9602 55.9858 72.8684 55.9858C71.1115 55.9858 69.6913 55.0939 69.0072 53.5889L70.708 52.2917C71.1115 53.0594 71.9204 53.8946 73.078 53.8946C73.7328 53.8946 74.1089 53.574 74.1089 53.1842C74.1089 52.7108 73.6498 52.3335 72.5204 51.9574C70.234 51.1903 69.2448 50.5778 69.2448 48.8347C69.2448 46.9393 70.9868 45.9483 72.6875 45.9483C74.6528 45.9483 75.5028 46.9107 76.0192 48.138L74.3608 49.4066C74.0821 48.541 73.5513 48.0115 72.6875 48.0115C71.9628 48.0115 71.5026 48.3189 71.5026 48.7929ZM66.3591 55.8463H64.1574V46.0882H66.3591V55.8463ZM34.8689 46.0887H32.6673V55.8468H39.2889V53.7556H34.8689V46.0887ZM79.0028 55.8463H81.2045V46.0882H79.0028V55.8463ZM57.0619 53.8947C58.2039 53.8947 58.8874 53.2953 58.8874 51.4698V46.0887H61.0896V51.8453C61.0896 54.7448 59.4587 55.9859 57.0619 55.9859C54.6644 55.9859 53.0323 54.7448 53.0323 51.8453V46.0887H55.2352V51.4829C55.2352 53.2953 55.8482 53.8947 57.0619 53.8947ZM160.075 49.7693H156.618V46.089H154.416V55.8464H156.618V51.8605H160.075V55.8464H162.277V46.089H160.075V49.7693ZM145.899 50.9807C145.899 52.8778 146.79 53.8945 148.086 53.8945C149.16 53.8945 149.676 53.2682 149.996 52.2224L152.116 52.682C151.6 54.815 150.345 55.9856 148.086 55.9856C145.564 55.9856 143.584 54.1732 143.584 50.9681C143.584 47.7749 145.564 45.9482 148.086 45.9482C150.471 45.9482 151.586 47.1893 151.809 49.4339L149.718 49.8936C149.606 48.668 149.063 48.0394 148.086 48.0394C146.79 48.0394 145.899 49.0716 145.899 50.9807ZM128.028 46.0887H125.366L122.438 49.7272V46.0887H120.236V55.8468H122.438V52.8625L123.261 51.8739L125.436 55.8468H128.098L124.849 49.9362L128.028 46.0887ZM105.069 55.8468L108.344 46.0887H110.827L114.102 55.8468H111.872L111.189 53.7007H107.983L107.3 55.8468H105.069ZM109.586 48.5978L108.61 51.6787H110.562L109.586 48.5978ZM130.258 55.8463H132.46V46.0882H130.258V55.8463ZM97.2492 46.089L100.636 52.4306V46.089H102.839V55.8464H100.288L96.9006 49.9359V55.8464H94.6984V46.089H97.2492ZM86.7109 46.0887L83.4348 55.8468H85.6651L86.348 53.7007H89.5537L90.2366 55.8468H92.4675L89.1919 46.0887H86.7109ZM86.9754 51.6787L87.9514 48.5978L88.9269 51.6787H86.9754ZM171.506 51.915H167.547V53.7555H172.063V55.8466H165.344V46.0886H171.98V48.1792H167.547V49.8238H171.506V51.915ZM180.594 52.4306L177.207 46.089H174.656V55.8464H176.858V49.9359L180.246 55.8464H182.796V46.089H180.594V52.4306ZM137.34 48.1793H134.691V46.0887H142.19V48.1793H139.542V55.8468H137.34V48.1793Z" fill="#FF7D00"></path><path fill-rule="evenodd" clip-rule="evenodd" d="M207.34 14.7414C205.532 14.0119 203.353 13.2048 201.935 12.5607C200.548 11.9309 200.058 11.3023 200.058 10.3465C200.058 9.07975 201.368 8.38787 203.035 8.38787C205.588 8.38787 207.582 9.56569 209.374 11.4814L214.996 5.63644C212.585 2.38952 208.447 0.346101 203.165 0.346101C196.009 0.346101 190.423 3.79837 190.423 10.6062C190.423 15.9843 193.016 18.5686 198.047 20.7451C199.475 21.3636 201.384 21.9128 202.815 22.5205C204.064 23.0506 204.849 23.6118 204.849 24.6385C204.849 25.5889 204.016 26.3608 201.601 26.3608C199.371 26.3608 196.165 25.4665 193.829 23.9485L190.411 30.9491C193.664 33.303 197.594 34.2688 201.612 34.2688C207.85 34.2688 214.539 31.567 214.539 24.3042C214.539 18.8336 211.04 16.2344 207.34 14.7414ZM12.9811 0.0488104C9.19571 -0.129683 2.74606 0.223722 0 0.427886L0.220878 8.61531L2.85112 8.45055L2.85232 33.9554H12.9924V27.5816C27.8116 26.8748 31.2734 18.9715 31.2734 13.3964C31.2734 5.4872 24.8273 0.605782 12.9811 0.0488104ZM12.9924 19.63V8.48637C19.4522 8.79082 21.0061 11.5536 21.0061 13.8066C21.0061 17.0069 18.8618 19.51 12.9924 19.63ZM114.285 0.455346C104.493 0.455346 97.716 7.55868 97.716 17.3442C97.716 27.1303 104.102 34.4121 115.321 34.4121C120.34 34.4121 124.729 33.1943 128.249 30.4626L124.293 23.2207C121.709 25.0134 118.928 26.0217 115.75 26.0217C111.526 26.0217 109.035 24.0917 108.08 20.7415H129.665C129.85 19.7709 130.013 17.8767 129.998 16.1944C129.936 9.23258 126.267 0.455346 114.285 0.455346ZM107.996 13.8836C108.786 10.6229 110.862 8.39682 114.317 8.39682C117.61 8.39682 119.992 10.3179 120.265 13.8836H107.996ZM49.2201 0.658912C39.908 0.658912 32.1599 7.5742 32.1599 17.383C32.1599 27.1918 39.908 34.1065 49.2201 34.1065C58.5334 34.1065 66.2814 27.1918 66.2814 17.383C66.2814 7.5742 58.5334 0.658912 49.2201 0.658912ZM49.2971 25.1346C44.7727 25.1346 41.903 21.6537 41.903 17.3191C41.903 12.9833 44.7727 9.5036 49.2971 9.5036C53.8221 9.5036 56.6917 12.9833 56.6917 17.3191C56.6917 21.6537 53.8221 25.1346 49.2971 25.1346ZM150.2 1.6457L143.846 15.3455L137.76 1.6457H126.757L138.502 25.0511V33.9877H149.058V25.0648L161.411 1.6457H150.2ZM78.7903 0.384307C75.0426 0.208201 68.6568 0.558025 65.9376 0.7598L66.1561 8.86604L68.7613 8.70307L68.7619 33.9554H78.8011V27.6449C93.474 26.9446 96.9018 19.1196 96.9018 13.6C96.9018 5.76956 90.5196 0.936503 78.7903 0.384307ZM78.8011 19.7715V8.73888C85.1976 9.03976 86.736 11.7757 86.736 14.0059C86.736 17.1752 84.6132 19.6533 78.8011 19.7715ZM173.919 0.455346C164.128 0.455346 157.351 7.55868 157.351 17.3442C157.351 27.1303 163.885 34.4121 174.867 34.4121C179.441 34.4121 183.417 33.4158 186.751 31.1551L183.103 23.6524C180.715 25.1884 178.21 26.0217 175.296 26.0217C171.252 26.0217 168.718 24.0917 167.733 20.7415H189.295C189.481 19.7709 189.648 17.8767 189.633 16.1944C189.57 9.23258 185.901 0.455346 173.919 0.455346ZM167.631 13.8836C168.42 10.6229 170.496 8.39682 173.952 8.39682C177.245 8.39682 179.649 10.3525 179.9 13.8836H167.631Z" fill="#FF7D00"></path></svg>